<svg width="404" height="112" viewBox="0 0 404 112" fill="none" xmlns="http://www.w3.org/2000/svg">
<path d="M40.5488 61.0174V87L84.5228 60.7866L98.4522 52.4831V25L55.2801 51.8541L40.5488 61.0174Z" fill="black"/>
<path d="M128 25H98.4522V52.4831H128V25Z" fill="black"/>
<path d="M128 52.4831H98.4522L84.5228 60.7866L117.037 60.3616L128 52.4831Z" fill="black"/>
<path d="M9 61.0174H40.5488L55.2801 51.8541H24.7957L9 61.0174Z" fill="black"/>
<path d="M9 61.0174V87H40.5488V61.0174H9Z" fill="black"/>
<path d="M9 61.0174V87H40.5488M9 61.0174H40.5488M9 61.0174L24.7957 51.8541H55.2801M40.5488 87V61.0174M40.5488 87L98.4522 52.4831M40.5488 87L84.5228 60.7866M40.5488 61.0174L98.4522 25M40.5488 61.0174L55.2801 51.8541M55.2801 51.8541L98.4522 25M98.4522 25H128V52.4831M98.4522 25V52.4831M128 52.4831H98.4522M128 52.4831L117.037 60.3616L84.5228 60.7866M98.4522 52.4831L84.5228 60.7866" stroke="white"/>
<path d="M142.686 80V30.3H174.636V38.82H152.058V50.677H172.648V59.197H152.058V71.48H175.062V80H142.686ZM182.283 80V44.784H191.087V49.399H192.365C192.933 48.1683 193.998 47.0087 195.56 45.92C197.122 44.784 199.489 44.216 202.66 44.216C205.406 44.216 207.796 44.855 209.831 46.133C211.914 47.3637 213.523 49.0913 214.659 51.316C215.795 53.4933 216.363 56.0493 216.363 58.984V80H207.417V59.694C207.417 57.0433 206.755 55.0553 205.429 53.73C204.151 52.4047 202.305 51.742 199.891 51.742C197.146 51.742 195.016 52.665 193.501 54.511C191.987 56.3097 191.229 58.842 191.229 62.108V80H182.283ZM224.33 62.534V61.398C224.33 57.706 225.064 54.5583 226.531 51.955C227.999 49.3043 229.939 47.2927 232.353 45.92C234.815 44.5 237.489 43.79 240.376 43.79C243.595 43.79 246.033 44.358 247.689 45.494C249.346 46.63 250.553 47.8133 251.31 49.044H252.588V44.784H261.392V86.248C261.392 88.662 260.682 90.579 259.262 91.999C257.842 93.4663 255.949 94.2 253.582 94.2H230.01V86.39H250.458C251.784 86.39 252.446 85.68 252.446 84.26V75.101H251.168C250.695 75.8583 250.032 76.6393 249.18 77.444C248.328 78.2013 247.192 78.8403 245.772 79.361C244.352 79.8817 242.554 80.142 240.376 80.142C237.489 80.142 234.815 79.4557 232.353 78.083C229.939 76.663 227.999 74.6513 226.531 72.048C225.064 69.3973 224.33 66.226 224.33 62.534ZM242.932 72.332C245.678 72.332 247.973 71.4563 249.819 69.705C251.665 67.9537 252.588 65.4923 252.588 62.321V61.611C252.588 58.3923 251.665 55.931 249.819 54.227C248.021 52.4757 245.725 51.6 242.932 51.6C240.187 51.6 237.891 52.4757 236.045 54.227C234.199 55.931 233.276 58.3923 233.276 61.611V62.321C233.276 65.4923 234.199 67.9537 236.045 69.705C237.891 71.4563 240.187 72.332 242.932 72.332ZM271.311 80V44.784H280.115V48.76H281.393C281.913 47.34 282.765 46.2987 283.949 45.636C285.179 44.9733 286.599 44.642 288.209 44.642H292.469V52.594H288.067C285.795 52.594 283.925 53.2093 282.458 54.44C280.99 55.6233 280.257 57.4693 280.257 59.978V80H271.311ZM309.563 80.994C307.055 80.994 304.806 80.568 302.818 79.716C300.83 78.8167 299.245 77.5387 298.061 75.882C296.925 74.178 296.357 72.119 296.357 69.705C296.357 67.291 296.925 65.2793 298.061 63.67C299.245 62.0133 300.854 60.7827 302.889 59.978C304.972 59.126 307.339 58.7 309.989 58.7H319.645V56.712C319.645 55.0553 319.125 53.7063 318.083 52.665C317.042 51.5763 315.385 51.032 313.113 51.032C310.889 51.032 309.232 51.5527 308.143 52.594C307.055 53.588 306.345 54.8897 306.013 56.499L297.777 53.73C298.345 51.9313 299.245 50.2983 300.475 48.831C301.753 47.3163 303.434 46.1093 305.516 45.21C307.646 44.2633 310.226 43.79 313.255 43.79C317.894 43.79 321.562 44.9497 324.26 47.269C326.958 49.5883 328.307 52.949 328.307 57.351V70.486C328.307 71.906 328.97 72.616 330.295 72.616H333.135V80H327.171C325.42 80 323.976 79.574 322.84 78.722C321.704 77.87 321.136 76.734 321.136 75.314V75.243H319.787C319.598 75.811 319.172 76.5683 318.509 77.515C317.847 78.4143 316.805 79.219 315.385 79.929C313.965 80.639 312.025 80.994 309.563 80.994ZM311.125 73.752C313.634 73.752 315.669 73.0657 317.231 71.693C318.841 70.273 319.645 68.4033 319.645 66.084V65.374H310.628C308.972 65.374 307.67 65.729 306.723 66.439C305.777 67.149 305.303 68.143 305.303 69.421C305.303 70.699 305.8 71.7403 306.794 72.545C307.788 73.3497 309.232 73.752 311.125 73.752ZM339.676 80V44.784H348.48V48.618H349.758C350.373 47.4347 351.391 46.417 352.811 45.565C354.231 44.6657 356.101 44.216 358.42 44.216C360.929 44.216 362.94 44.713 364.455 45.707C365.97 46.6537 367.129 47.908 367.934 49.47H369.212C370.017 47.9553 371.153 46.701 372.62 45.707C374.087 44.713 376.17 44.216 378.868 44.216C381.045 44.216 383.01 44.6893 384.761 45.636C386.56 46.5353 387.98 47.9317 389.021 49.825C390.11 51.671 390.654 54.014 390.654 56.854V80H381.708V57.493C381.708 55.5523 381.211 54.1087 380.217 53.162C379.223 52.168 377.827 51.671 376.028 51.671C373.993 51.671 372.407 52.3337 371.271 53.659C370.182 54.937 369.638 56.783 369.638 59.197V80H360.692V57.493C360.692 55.5523 360.195 54.1087 359.201 53.162C358.207 52.168 356.811 51.671 355.012 51.671C352.977 51.671 351.391 52.3337 350.255 53.659C349.166 54.937 348.622 56.783 348.622 59.197V80H339.676Z" fill="black"/>
</svg>
